<?xml version="1.0" encoding="utf-8"?>
<!-- Generator: Adobe Illustrator 22.1.0, SVG Export Plug-In . SVG Version: 6.00 Build 0)  -->
<svg version="1.1" id="Layer_1" xmlns="http://www.w3.org/2000/svg" xmlns:xlink="http://www.w3.org/1999/xlink" x="0px" y="0px"
	 viewBox="0 0 180 89.5" style="enable-background:new 0 0 180 89.5;" xml:space="preserve">
<style type="text/css">
	.st0{fill:#B1712D;}
	.st1{fill:#FFFFFF;}
	.st2{fill:#F9B400;}
	.st3{fill:#FFD800;}
	.st4{fill:#91662F;}
	.st5{fill:#A9762C;}
	.st6{fill:#F5EC7F;}
	.st7{fill:#FFFDFA;}
	.st8{fill:#A7712B;}
</style>
<g>
	<g>
		<g>
			<g>
				<path class="st0" d="M0.6,57.8c0,0-0.3-18.6,1.2-31.5c0,0,6.1-9.1,24.2-17.3c0,0-1.4,28.2-1.2,29.6C24.7,38.5,6.5,50.5,0.6,57.8
					z"/>
			</g>
			<g>
				<path class="st1" d="M0.1,59.3l0-1.4c0-0.2-0.3-18.8,1.2-31.6l0-0.1L1.3,26c0.3-0.4,6.4-9.3,24.4-17.5l0.8-0.4l0,0.9
					c-0.6,11.3-1.4,28.5-1.2,29.5l0,0.3L25,39C24.8,39.1,6.8,50.9,1,58.1L0.1,59.3z M2.3,26.5C1,37.2,1,51.9,1.1,56.4
					C7.3,49.5,22,39.7,24.2,38.3c0-3.1,0.9-23.4,1.2-28.5C9.3,17.3,3,25.5,2.3,26.5z"/>
			</g>
		</g>
		<g>
			<g>
				<path class="st0" d="M42.1,8.8c0,0,2.1,15.9,3,30.7c0,0,7,0.3,27.1,15.2c0,0,0.3-19.3-3-30C69.2,24.7,61,15.3,42.1,8.8z"/>
			</g>
			<g>
				<path class="st1" d="M72.7,55.7l-0.8-0.6C52.2,40.5,45.1,40,45,39.9l-0.5,0l0-0.5c-0.9-14.5-3-30.5-3-30.6L41.4,8l0.8,0.3
					c18.8,6.5,27.3,16,27.4,16.1l0.1,0.2c3.3,10.6,3,29.9,3,30.1L72.7,55.7z M45.5,39c1.9,0.3,9.3,2.3,26.1,14.7
					c0-4.1-0.1-19.6-2.9-28.7c-0.8-0.9-9-9.4-26.1-15.4C43.1,13,44.8,26.4,45.5,39z"/>
			</g>
		</g>
		<g>
			<g>
				<path class="st0" d="M10.2,69c0,0,13.3,7.5,27.7,11.9c0,0,13.8-3.7,26.8-13.5c0,0-12.3-7.2-27.7-10.7C37,56.8,35.6,56.2,10.2,69
					z"/>
			</g>
			<g>
				<path class="st1" d="M37.9,81.5l-0.1,0c-14.3-4.3-27.6-11.9-27.8-12L9.1,69l0.9-0.4c22.7-11.4,26.4-12.3,27-12.3l0.2,0
					C52.4,59.7,64.8,66.9,64.9,67l0.7,0.4L65,67.9c-12.9,9.8-26.8,13.5-27,13.6L37.9,81.5z M11.3,69c3.2,1.7,14.5,7.7,26.6,11.3
					c1.5-0.4,14-4.1,25.8-12.9C60.9,66,50,60.3,36.9,57.3C36.7,57.3,33.8,57.7,11.3,69z"/>
			</g>
		</g>
		<g>
			<g>
				<path class="st2" d="M12.3,31.4c0,0-3.2,3-2.5,23.3c0,0,4.4,11,26.6,16.5v-31C36.5,40.1,28.8,28.4,12.3,31.4z"/>
			</g>
			<g>
				<path class="st1" d="M36.9,71.6l-0.5-0.1C14.2,66.1,9.7,55.3,9.5,54.8l0-0.1C8.7,34.4,11.9,31.2,12,31.1l0.1-0.1l0.1,0
					c1.8-0.3,3.6-0.5,5.3-0.5c12.9,0,19.2,9.3,19.3,9.4l0.1,0.1L36.9,71.6L36.9,71.6z M10.2,54.6c0.4,0.9,5.3,10.9,25.8,16V40.2
					c-0.7-1-6.7-9-18.5-9c-1.6,0-3.3,0.2-5,0.5C12.1,32.3,9.6,36.6,10.2,54.6z"/>
			</g>
		</g>
		<g>
			<g>
				<path class="st3" d="M60.3,30.4c0,0-13,3.5-23.8,11v29.8c0,0,20.8-3.5,22.9-15.6c0,0-7.2,3.9-14.5,5.8c0,0,15.8-5.1,18.3-9.1
					l0.8-8.1c0,0-4.7,4.2-19.8,10.2c0,0,15.1-5.6,19.6-10c0,0,1-1.8,0.3-8.1c0,0-6.3,5.5-19.6,9.2c0,0,12.9-4.1,16.8-7.2
					C62.3,37.3,60.3,30.4,60.3,30.4L60.3,30.4z"/>
			</g>
			<g>
				<path class="st1" d="M36.1,71.6V41.1l0.2-0.1c10.8-7.5,23.8-11,24-11l0.4-0.1l0.1,0.4c0.5,1.7,1.4,5.2,1.3,7.1
					c1.3-0.9,1.9-1.4,1.9-1.4l0.6-0.5l0.1,0.7c0.5,4.3,0.2,6.6-0.1,7.7l-0.9,8.6c-0.6,1-2,2-3.7,3l0,0.2
					c-2.1,12.2-22.4,15.8-23.3,15.9L36.1,71.6z M36.9,41.6v29.1c3-0.6,19.4-4.3,22-14.4c-2,1-7.9,3.9-13.9,5.4l-0.2-0.8
					c0.2,0,15.4-5.1,18.1-8.8l0.7-6.9c-5.1,4.3-18.6,9.3-19.2,9.5L44,53.9c13.2-5.2,18.4-9.1,19.5-9.9c0.2-0.5,0.7-2.4,0.3-7.1
					c-0.6,0.4-1.6,1.2-3,2c-0.7,0.5-1.6,1-2.7,1.5c-4,2.1-8.5,3.9-13.4,5.2L44.4,45c0.1,0,8.1-2.6,13.3-5.2c0.9-0.5,1.8-1,2.7-1.5
					c0.2-0.2,0.5-0.3,0.7-0.5c0.4-0.4,0-3.6-1-7C57.9,31.5,46.5,34.9,36.9,41.6z"/>
			</g>
		</g>
		<g>
			<g>
				<path class="st4" d="M10.2,54.4c0,0,8,12.2,25.9,15.1l-0.1,1.2C36.1,70.7,16.2,66.4,10.2,54.4z"/>
			</g>
		</g>
		<g>
			<g>
				<path class="st5" d="M10.5,39.9l11,6.6l3.9-2.9l6.6,2.9l4.1-3.2l0-6.5l-23.8-4.5C12.3,32.3,10.5,31.8,10.5,39.9z"/>
			</g>
		</g>
		<g>
			<g>
				<path class="st6" d="M9.8,30.5c0,0,10.2-10.9,25-12.4c0,0,11.2,0.7,24.2,12.4c0,0-16.5,4.4-27.7,13.8L24.9,41
					c0,0,13-9.8,21.2-11.9c0,0-9.6,1.9-25.2,14.5l-6.5-3.4c0,0,13.9-13.1,24.7-15c0,0-7.7,0-25,14.8L9,37.1c0,0,5.1-8.4,23.1-15.2
					c0,0-5.4,2.2-9.3,4.3c-2.5,1.3-9.1,5.8-9.1,5.8L9.8,30.5z"/>
			</g>
			<g>
				<path class="st1" d="M31.4,44.8l-6.9-3.5c-1.1,0.8-2.2,1.7-3.4,2.7l-0.2,0.2l-7.2-3.8l0,0l-5.3-3l0.2-0.3c0.1-0.1,1.2-2,4.4-4.8
					l-3.9-1.5l0.4-0.4c0.1-0.1,10.4-11,25.3-12.6c0.2,0,11.6,0.8,24.5,12.5l0.5,0.5l-0.7,0.2c-0.2,0-16.5,4.5-27.5,13.8L31.4,44.8z
					 M25.6,40.9l5.7,2.9c9.8-8.2,23.7-12.6,26.9-13.6C45.8,19.3,35,18.5,34.9,18.4C22,19.8,12.6,28.4,10.5,30.3l3.1,1.2l0.7-0.4
					c4.6-3.7,10.5-6.9,17.6-9.6l0.3,0.7c-0.1,0-5.4,2.2-9.3,4.3c-2,1-6.4,4-8.2,5.2c-3.1,2.5-4.7,4.5-5.2,5.2l4.5,2.5
					c17.1-14.5,24.7-14.7,25-14.7l0.1,0.8C29.6,27.3,17.4,38,15,40.1l5.8,3C36.2,30.8,45.6,28.8,46,28.7l0.2,0.8
					C39,31.3,28.1,39.1,25.6,40.9z"/>
			</g>
		</g>
		<g>
			<g>
				<path class="st7" d="M36.9,42.2c0,0,15.6-9.1,22.7-10.4l1.6,5.6c0,0,0.5-1-1.1-6.6c0,0-9,1.9-23.2,10.3V42.2z"/>
			</g>
		</g>
		<g>
			<g>
				<path class="st7" d="M44.3,45.8c0,0,8.5-0.4,18.9-7.3c0,0,0.8,3.3,0.4,5c0,0,1-1.9,0.1-6.5c0,0-6,5.3-19.3,8.4"/>
			</g>
		</g>
		<g>
			<g>
				<path class="st7" d="M44.2,54.3c0,0-2.3,2.9,18.6-7.6c0,0,0.3,3.6,0.1,5.4l0.7-7C63.5,45.1,50.9,52.9,44.2,54.3z"/>
			</g>
		</g>
		<g>
			<g>
				<path class="st7" d="M44.9,61.3c0,0-0.5,2.3,12.6-3.9c0,0,0.5,1.8-2.6,5.1c0,0,2.9-1.6,4.2-6.3C59.1,56.2,50.6,60.1,44.9,61.3z"
					/>
			</g>
		</g>
		<g>
			<g>
				<path class="st8" d="M13.3,31.5c0,0,7.4-5.8,18.7-10.1c0,0,0.1,0.4-2.2,1.2c-3.9,1.4-9.2,4.2-16.1,9L13.3,31.5z"/>
			</g>
		</g>
		<g>
			<g>
				<path class="st8" d="M13.5,39.3c0,0,14.8-12.2,23.4-14.5c1.1-0.3,1.7-0.1,2.2,0c0,0-6.5-0.5-25.1,14.8L13.5,39.3z"/>
			</g>
		</g>
		<g>
			<g>
				<path class="st8" d="M20.3,42.9c0,0,13.3-11,24.6-14l1.1-0.1c-1.6,1.2-5.7-0.3-25.3,14.5L20.3,42.9z"/>
			</g>
		</g>
		<g>
			<g>
				<path class="st8" d="M30.9,43.6c0,0,11.3-10,26.9-13.7l0.6,0.4c0,0-14.1,3.5-27,13.6L30.9,43.6z"/>
			</g>
		</g>
		<g>
			<g>
				<path class="st1" d="M35.1,18.4c0,0-12.7,1.6-23.8,11.7c0,0,0.9,0.5,1.9,1.2l-2.8-1C10.4,30.4,21.5,19.6,35.1,18.4z"/>
			</g>
		</g>
		<g>
			<g>
				<path class="st1" d="M32.3,22c0,0-17.3,7.2-22.8,14.9l4,2.4c0,0-3.2-2.3-3-2.5c1.5-2.2,9.3-8.9,21.6-14.2L32.3,22z"/>
			</g>
		</g>
		<g>
			<g>
				<path class="st1" d="M39.1,25.2c0,0-10,2.1-24.2,14.9l5.2,2.6c0,0-3.9-2.6-3.8-3c0,0,9.6-9.2,23-14.1L39.1,25.2z"/>
			</g>
		</g>
		<g>
			<g>
				<path class="st1" d="M46.2,29.1c0,0-10,3.4-20.6,11.7l5.2,2.7c0,0-3.3-1.7-4-2.8c0,0,9.4-7.4,19.3-11.3L46.2,29.1z"/>
			</g>
		</g>
	</g>
	<g>
		<path class="st1" d="M97.2,46.4h4v17h-4l-0.2-2.5c-1,2-3.6,3-5.5,3c-5,0-8.7-3.1-8.7-9c0-5.8,3.9-8.9,8.8-8.9
			c2.3,0,4.4,1.1,5.4,2.8L97.2,46.4z M87,54.8c0,3.2,2.2,5.2,5,5.2c6.6,0,6.6-10.3,0-10.3C89.3,49.7,87,51.6,87,54.8z"/>
		<path class="st1" d="M116.1,63.3v-9.1c0-2.2-1.2-4.3-3.5-4.3c-2.3,0-3.6,2-3.6,4.3v9.1h-4.2v-17h3.9l0.3,2.1
			c0.9-1.7,2.9-2.3,4.5-2.3c2,0,4.1,0.8,5,3.2c1.5-2.4,3.5-3.1,5.7-3.1c4.8,0,7.2,3,7.2,8.1v9.2h-4.2v-9.2c0-2.2-0.9-4.1-3.2-4.1
			c-2.3,0-3.7,2-3.7,4.2v9.1L116.1,63.3L116.1,63.3z"/>
		<path class="st1" d="M140.2,41.6c0,3.3-5,3.3-5,0C135.2,38.3,140.2,38.3,140.2,41.6z M135.6,46.3v17h4.2v-17H135.6z"/>
		<path class="st1" d="M156.9,44.6L160,47l-1.9,2.4c1.3,1.5,1.8,3.2,1.8,5c0,2.1-0.8,5.1-3.6,6.3c2.8,1.4,3.5,3.4,3.5,5.6
			c0,4.7-3.6,7.6-8.5,7.6c-4.9,0-8.6-3-8.6-7.6h4.2c0,2.2,2,3.6,4.4,3.6c2.4,0,4.3-1.3,4.3-3.6c0-2.3-2.2-3.4-4.3-3.4
			c-5.3,0-8.6-3.2-8.6-8.5c0-5.3,3.9-8.6,8.6-8.6c1.3,0,2.7,0.2,3.9,1L156.9,44.6z M146.9,54.4c0,3,2,4.7,4.4,4.7
			c2.4,0,4.4-1.8,4.4-4.7s-2-4.8-4.4-4.8C148.9,49.6,146.9,51.5,146.9,54.4z"/>
		<path class="st1" d="M179.5,54.9c0,4.9-3.3,8.8-8.8,8.8c-5.5,0-8.8-4-8.8-8.8c0-4.9,3.4-8.8,8.8-8.8C176,46,179.5,50,179.5,54.9z
			 M166,54.9c0,2.6,1.5,5,4.6,5c3.1,0,4.6-2.4,4.6-5c0-2.5-1.8-5-4.6-5C167.6,49.8,166,52.3,166,54.9z"/>
	</g>
	<g>
		<path class="st1" d="M96.7,22.1c-1.5-1.4-3.5-2.2-5.4-2.2c-4.9,0-7.4,3.6-7.4,7.5c0,3.9,2.5,7.3,7.4,7.3c1.8,0,3.7-0.6,5.1-1.9
			v-4.7h-5.8V27h7.1v6.3c-1.7,1.7-3.8,2.7-6.3,2.7c-5.7,0-8.6-4-8.6-8.5c0-5.2,3.5-8.7,8.6-8.7c2.2,0,4.4,0.8,6.1,2.5L96.7,22.1z"/>
		<path class="st1" d="M102,23.9l0,2.1c0.7-1.6,2.4-2.2,3.9-2.2c0.9,0,1.7,0.2,2.5,0.7l-0.5,1c-0.6-0.4-1.3-0.6-2-0.6
			c-2.2,0-3.9,1.8-3.9,3.9v6.9h-1.2V23.9H102z"/>
		<path class="st1" d="M120,35.7v-2.1c-0.9,1.6-2.6,2.3-4.2,2.3c-3.2,0-5.3-1.9-5.3-5.2v-6.8h1.2v6.8c0,2.7,1.7,4.1,4.2,4.1
			c2.4,0,4.1-1.9,4.1-4.3v-6.6h1.2v11.8L120,35.7L120,35.7z"/>
		<path class="st1" d="M124.3,40.7V23.9h1.1v2.8c0.9-1.8,2.8-3,5.1-3c3.2,0.1,5.7,2.3,5.7,6.1c0,4-2.7,6.1-6,6.1c-2,0-3.9-1-4.9-2.9
			v7.7L124.3,40.7L124.3,40.7z M135.1,29.8c0-3.3-2.2-5-4.8-5c-2.8,0-4.8,2.1-4.8,5s2.1,5,4.8,5C133,34.8,135.1,33.1,135.1,29.8z"/>
		<path class="st1" d="M138.6,29.8c0-3.8,2.7-6.2,6-6.2c3.3,0,6,2.4,6,6.2s-2.7,6.1-6,6.1C141.3,35.9,138.6,33.6,138.6,29.8z
			 M149.5,29.8c0-3.1-2.2-5-4.9-5c-2.7,0-4.9,2-4.9,5c0,3.1,2.2,4.9,4.9,4.9C147.3,34.7,149.5,32.9,149.5,29.8z"/>
	</g>
</g>
<g>
	<path class="st1" d="M179.3,70.6c0,1.1-0.9,2-2,2c-1.1,0-2-0.9-2-2c0-1.1,0.9-2,2-2C178.4,68.6,179.3,69.5,179.3,70.6z M175.7,70.6
		c0,0.9,0.6,1.6,1.5,1.6c0.9,0,1.5-0.7,1.5-1.6c0-0.9-0.6-1.6-1.5-1.6C176.4,69,175.7,69.7,175.7,70.6z M176.9,71.6h-0.5v-2
		c0.2,0,0.4-0.1,0.8-0.1c0.4,0,0.5,0.1,0.7,0.1c0.1,0.1,0.2,0.2,0.2,0.4c0,0.2-0.2,0.4-0.4,0.5v0c0.2,0.1,0.3,0.2,0.4,0.5
		c0.1,0.3,0.1,0.4,0.1,0.5h-0.5c-0.1-0.1-0.1-0.3-0.2-0.5c0-0.2-0.2-0.3-0.4-0.3h-0.2V71.6z M177,70.5h0.2c0.3,0,0.5-0.1,0.5-0.3
		c0-0.2-0.1-0.3-0.4-0.3c-0.1,0-0.2,0-0.3,0V70.5z"/>
</g>
</svg>
