<?xml version="1.0" encoding="utf-8"?>
<!-- Generator: Adobe Illustrator 22.1.0, SVG Export Plug-In . SVG Version: 6.00 Build 0)  -->
<svg version="1.1" id="Layer_1" xmlns="http://www.w3.org/2000/svg" xmlns:xlink="http://www.w3.org/1999/xlink" x="0px" y="0px"
	 viewBox="0 0 150 89.5" style="enable-background:new 0 0 150 89.5;" xml:space="preserve">
<style type="text/css">
	.st0{fill:#B1712D;}
	.st1{fill:#292623;}
	.st2{fill:#F9B400;}
	.st3{fill:#FFD800;}
	.st4{fill:#91662F;}
	.st5{fill:#A9762C;}
	.st6{fill:#F5EC7F;}
	.st7{fill:#FFFDFA;}
	.st8{fill:#A7712B;}
	.st9{fill:#FFFFFF;}
</style>
<g>
	<g>
		<g>
			<g>
				<path class="st0" d="M0.5,55.6c0,0-0.3-15.5,1-26.3c0,0,5.1-7.6,20.1-14.5c0,0-1.2,23.5-1,24.7C20.6,39.6,5.4,49.5,0.5,55.6z"/>
			</g>
			<g>
				<path class="st1" d="M0,56.8l0-1.2c0-0.2-0.3-15.6,1-26.3l0-0.1l0.1-0.1c0.2-0.3,5.3-7.8,20.3-14.6l0.7-0.3l0,0.7
					c-0.5,9.4-1.1,23.8-1,24.6l0,0.3l-0.2,0.1c-0.2,0.1-15.2,10-20,16L0,56.8z M1.9,29.5c-1.1,8.9-1.1,21.2-1,24.9
					c5.2-5.8,17.5-13.9,19.3-15.1c0-2.6,0.8-19.5,1-23.7C7.7,21.9,2.5,28.7,1.9,29.5z"/>
			</g>
		</g>
		<g>
			<g>
				<path class="st0" d="M35.1,14.8c0,0,1.8,13.3,2.5,25.5c0,0,5.8,0.3,22.6,12.7c0,0,0.3-16.1-2.5-25
					C57.7,28.1,50.8,20.2,35.1,14.8z"/>
			</g>
			<g>
				<path class="st1" d="M60.6,53.9l-0.7-0.5C43.5,41.2,37.6,40.8,37.5,40.7l-0.4,0l0-0.4c-0.7-12.1-2.5-25.4-2.5-25.5l-0.1-0.7
					l0.7,0.2C50.9,19.7,57.9,27.7,58,27.8l0.1,0.2c2.8,8.9,2.5,24.9,2.5,25.1L60.6,53.9z M38,39.9c1.5,0.3,7.7,1.9,21.8,12.2
					c0-3.4-0.1-16.3-2.4-23.9c-0.7-0.8-7.5-7.8-21.7-12.9C35.9,18.3,37.3,29.5,38,39.9z"/>
			</g>
		</g>
		<g>
			<g>
				<path class="st0" d="M8.5,65c0,0,11.1,6.3,23.1,9.9c0,0,11.5-3.1,22.3-11.2c0,0-10.2-6-23.1-8.9C30.8,54.8,29.7,54.3,8.5,65z"/>
			</g>
			<g>
				<path class="st1" d="M31.5,75.4l-0.1,0c-11.9-3.6-23-9.9-23.1-10L7.6,65l0.7-0.4c18.9-9.5,22-10.3,22.5-10.3l0.2,0
					c12.7,2.9,23,8.9,23.1,8.9l0.6,0.3L54.1,64c-10.7,8.1-22.4,11.3-22.5,11.3L31.5,75.4z M9.4,65c2.6,1.4,12.1,6.4,22.1,9.5
					c1.2-0.3,11.7-3.4,21.5-10.7c-2.3-1.3-11.4-6-22.4-8.5C30.6,55.2,28.2,55.6,9.4,65z"/>
			</g>
		</g>
		<g>
			<g>
				<path class="st2" d="M10.2,33.6c0,0-2.6,2.5-2,19.4c0,0,3.6,9.2,22.2,13.7V40.9C30.4,40.9,24,31.1,10.2,33.6z"/>
			</g>
			<g>
				<path class="st1" d="M30.7,67.1L30.3,67C11.8,62.5,8,53.5,7.9,53.1l0-0.1c-0.6-16.9,2-19.6,2.1-19.7l0.1-0.1l0.1,0
					c1.5-0.3,3-0.4,4.4-0.4c10.8,0,16,7.8,16.1,7.8l0.1,0.1L30.7,67.1L30.7,67.1z M8.5,52.9C8.8,53.6,13,62,30.1,66.3V41
					c-0.6-0.8-5.6-7.5-15.5-7.5c-1.4,0-2.8,0.1-4.2,0.4C10.1,34.4,8,37.9,8.5,52.9z"/>
			</g>
		</g>
		<g>
			<g>
				<path class="st3" d="M50.3,32.8c0,0-10.8,2.9-19.9,9.2v24.8c0,0,17.4-2.9,19.1-13c0,0-6,3.2-12.1,4.8c0,0,13.1-4.3,15.3-7.6
					l0.6-6.7c0,0-3.9,3.5-16.5,8.5c0,0,12.6-4.7,16.3-8.3c0,0,0.9-1.5,0.3-6.8c0,0-5.2,4.6-16.3,7.6c0,0,10.8-3.4,14-6
					C51.9,38.5,50.3,32.8,50.3,32.8L50.3,32.8z"/>
			</g>
			<g>
				<path class="st1" d="M30.1,67.1V41.7l0.1-0.1c9-6.2,19.9-9.2,20-9.2l0.3-0.1l0.1,0.3c0.4,1.4,1.2,4.3,1.1,5.9
					c1-0.7,1.6-1.2,1.6-1.2l0.5-0.4l0.1,0.6c0.4,3.6,0.1,5.5-0.1,6.4l-0.7,7.2c-0.5,0.8-1.7,1.7-3.1,2.5l0,0.1
					C48.1,64,31.2,66.9,30.4,67.1L30.1,67.1z M30.7,42.1v24.2c2.5-0.5,16.2-3.6,18.3-12c-1.7,0.9-6.6,3.2-11.6,4.5l-0.2-0.6
					c0.1,0,12.9-4.2,15.1-7.4l0.5-5.8c-4.3,3.6-15.5,7.8-16,7.9l-0.2-0.6c11-4.3,15.3-7.5,16.2-8.3c0.2-0.4,0.6-2,0.2-5.9
					c-0.5,0.4-1.3,1-2.5,1.7c-0.6,0.4-1.3,0.8-2.3,1.3c-3.3,1.7-7.1,3.2-11.2,4.3L37,45c0.1,0,6.8-2.2,11.1-4.3
					c0.8-0.4,1.5-0.8,2.2-1.2c0.2-0.1,0.4-0.3,0.6-0.4c0.4-0.3,0-3-0.8-5.8C48.2,33.7,38.7,36.6,30.7,42.1z"/>
			</g>
		</g>
		<g>
			<g>
				<path class="st4" d="M8.5,52.8c0,0,6.7,10.1,21.6,12.6l-0.1,1C30.1,66.4,13.5,62.8,8.5,52.8z"/>
			</g>
		</g>
		<g>
			<g>
				<path class="st5" d="M8.7,40.7l9.2,5.5l3.3-2.4l5.5,2.4l3.4-2.7l0-5.4l-19.8-3.8C10.2,34.4,8.7,34,8.7,40.7z"/>
			</g>
		</g>
		<g>
			<g>
				<path class="st6" d="M8.2,32.9c0,0,8.5-9,20.9-10.4c0,0,9.3,0.6,20.1,10.4c0,0-13.7,3.6-23.1,11.5l-5.4-2.8
					c0,0,10.8-8.2,17.7-9.9c0,0-8,1.6-21,12.1L12,41c0,0,11.6-10.9,20.6-12.5c0,0-6.4,0-20.8,12.3l-4.3-2.4c0,0,4.2-7,19.3-12.7
					c0,0-4.5,1.9-7.8,3.6c-2.1,1.1-7.6,4.8-7.6,4.8L8.2,32.9z"/>
			</g>
			<g>
				<path class="st1" d="M26.2,44.8l-5.7-2.9c-0.9,0.7-1.9,1.4-2.9,2.2l-0.2,0.1l-6-3.2l0,0L7,38.5l0.2-0.3c0-0.1,1-1.7,3.7-4
					L7.6,33L8,32.6C8,32.6,16.7,23.5,29,22.2c0.1,0,9.6,0.7,20.4,10.4l0.4,0.4l-0.6,0.2c-0.1,0-13.8,3.7-22.9,11.5L26.2,44.8z
					 M21.4,41.6l4.7,2.4c8.2-6.8,19.7-10.5,22.4-11.3c-10.4-9.2-19.4-9.9-19.5-9.9C18.3,24,10.5,31.1,8.8,32.7l2.6,1l0.5-0.4
					c3.8-3.1,8.8-5.8,14.7-8l0.2,0.6c0,0-4.5,1.9-7.7,3.6c-1.6,0.9-5.3,3.3-6.8,4.3c-2.6,2.1-3.9,3.7-4.3,4.3l3.8,2.1
					c14.2-12.1,20.6-12.3,20.9-12.3l0.1,0.7c-8,1.4-18.1,10.3-20.1,12.1l4.8,2.5c12.8-10.3,20.7-12,21-12l0.1,0.6
					C32.5,33.5,23.4,40.1,21.4,41.6z"/>
			</g>
		</g>
		<g>
			<g>
				<path class="st7" d="M30.7,42.6c0,0,13-7.6,18.9-8.6l1.3,4.7c0,0,0.5-0.8-0.9-5.5c0,0-7.5,1.6-19.3,8.6V42.6z"/>
			</g>
		</g>
		<g>
			<g>
				<path class="st7" d="M37,45.6c0,0,7.1-0.3,15.8-6.1c0,0,0.7,2.7,0.3,4.2c0,0,0.9-1.5,0.1-5.4c0,0-5,4.4-16.1,7"/>
			</g>
		</g>
		<g>
			<g>
				<path class="st7" d="M36.8,52.7c0,0-1.9,2.4,15.5-6.3c0,0,0.3,3,0.1,4.5l0.6-5.8C52.9,45,42.4,51.5,36.8,52.7z"/>
			</g>
		</g>
		<g>
			<g>
				<path class="st7" d="M37.4,58.6c0,0-0.4,1.9,10.5-3.3c0,0,0.4,1.5-2.2,4.2c0,0,2.4-1.3,3.5-5.3C49.2,54.2,42.2,57.5,37.4,58.6z"
					/>
			</g>
		</g>
		<g>
			<g>
				<path class="st8" d="M11,33.7c0,0,6.1-4.8,15.6-8.4c0,0,0.1,0.3-1.8,1c-3.2,1.2-7.7,3.5-13.4,7.5L11,33.7z"/>
			</g>
		</g>
		<g>
			<g>
				<path class="st8" d="M11.3,40.2c0,0,12.3-10.2,19.5-12.1c0.9-0.2,1.4-0.1,1.8,0c0,0-5.4-0.4-20.9,12.3L11.3,40.2z"/>
			</g>
		</g>
		<g>
			<g>
				<path class="st8" d="M17,43.2c0,0,11.1-9.2,20.5-11.7l0.9-0.1c-1.3,1-4.7-0.2-21,12L17,43.2z"/>
			</g>
		</g>
		<g>
			<g>
				<path class="st8" d="M25.7,43.8c0,0,9.4-8.3,22.4-11.4l0.5,0.3c0,0-11.8,2.9-22.5,11.3L25.7,43.8z"/>
			</g>
		</g>
		<g>
			<g>
				<path class="st9" d="M29.2,22.8c0,0-10.5,1.4-19.9,9.8c0,0,0.8,0.4,1.6,1l-2.3-0.8C8.6,32.8,17.9,23.8,29.2,22.8z"/>
			</g>
		</g>
		<g>
			<g>
				<path class="st9" d="M26.9,25.8c0,0-14.4,6-19,12.4l3.3,2c0,0-2.6-1.9-2.5-2.1c1.3-1.9,7.7-7.4,18-11.8L26.9,25.8z"/>
			</g>
		</g>
		<g>
			<g>
				<path class="st9" d="M32.6,28.5c0,0-8.3,1.8-20.2,12.4l4.3,2.2c0,0-3.3-2.1-3.1-2.5c0,0,8-7.7,19.1-11.7L32.6,28.5z"/>
			</g>
		</g>
		<g>
			<g>
				<path class="st9" d="M38.5,31.7c0,0-8.3,2.8-17.1,9.8l4.4,2.3c0,0-2.7-1.4-3.3-2.4c0,0,7.9-6.2,16.1-9.4L38.5,31.7z"/>
			</g>
		</g>
	</g>
	<g>
		<path class="st1" d="M81,46.1h3.4v14.1h-3.3l-0.2-2.1c-0.8,1.7-3,2.5-4.6,2.5c-4.2,0-7.3-2.6-7.3-7.5c0-4.9,3.2-7.4,7.4-7.4
			c1.9,0,3.7,0.9,4.5,2.3L81,46.1z M72.5,53.1c0,2.7,1.9,4.3,4.2,4.3c5.5,0,5.5-8.6,0-8.6C74.4,48.9,72.5,50.5,72.5,53.1z"/>
		<path class="st1" d="M96.7,60.2v-7.6c0-1.9-1-3.6-2.9-3.6c-1.9,0-3,1.7-3,3.6v7.6h-3.5V46.1h3.2l0.3,1.7c0.7-1.4,2.4-2,3.7-2
			c1.7,0,3.4,0.7,4.2,2.6c1.3-2,2.9-2.6,4.7-2.6c4,0,6,2.5,6,6.7v7.6H106v-7.6c0-1.9-0.8-3.4-2.7-3.4c-1.9,0-3.1,1.6-3.1,3.5v7.6
			L96.7,60.2L96.7,60.2z"/>
		<path class="st1" d="M116.8,42.1c0,2.7-4.1,2.7-4.1,0C112.7,39.4,116.8,39.4,116.8,42.1z M113,46v14.2h3.5V46H113z"/>
		<path class="st1" d="M130.8,44.7l2.6,2l-1.6,2c1.1,1.2,1.5,2.6,1.5,4.2c0,1.7-0.7,4.2-3,5.3c2.4,1.2,2.9,2.9,2.9,4.7
			c0,3.9-3,6.3-7.1,6.3c-4.1,0-7.2-2.5-7.2-6.3h3.5c0,1.8,1.7,3,3.7,3c2,0,3.6-1.1,3.6-3c0-2-1.8-2.8-3.6-2.8
			c-4.4,0-7.2-2.7-7.2-7.1c0-4.4,3.2-7.2,7.2-7.2c1.1,0,2.3,0.1,3.2,0.8L130.8,44.7z M122.4,52.8c0,2.5,1.7,3.9,3.7,3.9
			c2,0,3.7-1.5,3.7-3.9c0-2.4-1.7-4-3.7-4C124.1,48.8,122.4,50.3,122.4,52.8z"/>
		<path class="st1" d="M149.5,53.2c0,4.1-2.8,7.4-7.4,7.4c-4.6,0-7.3-3.3-7.3-7.4c0-4,2.8-7.4,7.3-7.4
			C146.7,45.8,149.5,49.1,149.5,53.2z M138.3,53.2c0,2.2,1.3,4.2,3.8,4.2c2.6,0,3.8-2,3.8-4.2c0-2.1-1.5-4.2-3.8-4.2
			C139.7,49,138.3,51.1,138.3,53.2z"/>
	</g>
	<g>
		<path class="st1" d="M80.6,25.8c-1.2-1.2-2.9-1.8-4.5-1.8c-4.1,0-6.2,3-6.2,6.2c0,3.3,2.1,6.1,6.2,6.1c1.5,0,3.1-0.5,4.2-1.6v-3.9
			h-4.9v-0.9h5.9v5.2c-1.5,1.5-3.2,2.3-5.3,2.3c-4.7,0-7.2-3.3-7.2-7.1c0-4.4,3-7.2,7.2-7.2c1.8,0,3.7,0.7,5.1,2.1L80.6,25.8z"/>
		<path class="st1" d="M85,27.4l0,1.8c0.6-1.3,2-1.9,3.3-1.9c0.7,0,1.5,0.2,2.1,0.6L90,28.6c-0.5-0.3-1.1-0.5-1.7-0.5
			c-1.8,0-3.3,1.5-3.3,3.3v5.7h-1v-9.9H85z"/>
		<path class="st1" d="M100,37.2v-1.8c-0.8,1.4-2.1,1.9-3.5,1.9c-2.6,0-4.4-1.6-4.4-4.3v-5.7h1V33c0,2.2,1.4,3.4,3.5,3.4
			c2,0,3.5-1.6,3.5-3.6v-5.5h1v9.9L100,37.2L100,37.2z"/>
		<path class="st1" d="M103.6,41.3v-14h1v2.3c0.8-1.5,2.4-2.5,4.3-2.5c2.7,0.1,4.8,1.9,4.8,5.1c0,3.3-2.2,5.1-5,5.1
			c-1.7,0-3.2-0.8-4.1-2.5v6.4L103.6,41.3L103.6,41.3z M112.6,32.3c0-2.8-1.8-4.1-4-4.1c-2.3,0-4,1.7-4,4.1s1.7,4.1,4,4.1
			C110.8,36.5,112.6,35.1,112.6,32.3z"/>
		<path class="st1" d="M115.5,32.3c0-3.1,2.2-5.1,5-5.1s5,2,5,5.1s-2.2,5-5,5C117.7,37.4,115.5,35.4,115.5,32.3z M124.6,32.3
			c0-2.6-1.8-4.2-4-4.2c-2.2,0-4,1.7-4,4.2s1.8,4.1,4,4.1C122.8,36.4,124.6,34.9,124.6,32.3z"/>
	</g>
</g>
<g>
	<path d="M148.2,65.7c0,1.1-0.9,2-2,2c-1.1,0-2-0.9-2-2c0-1.1,0.9-2,2-2C147.4,63.7,148.2,64.6,148.2,65.7z M144.7,65.7
		c0,0.9,0.6,1.6,1.5,1.6c0.9,0,1.5-0.7,1.5-1.6c0-0.9-0.6-1.6-1.5-1.6C145.3,64.1,144.7,64.8,144.7,65.7z M145.9,66.7h-0.5v-2
		c0.2,0,0.4-0.1,0.8-0.1c0.4,0,0.5,0.1,0.7,0.1c0.1,0.1,0.2,0.2,0.2,0.4c0,0.2-0.2,0.4-0.4,0.5v0c0.2,0.1,0.3,0.2,0.4,0.5
		c0.1,0.3,0.1,0.4,0.1,0.5h-0.5c-0.1-0.1-0.1-0.3-0.2-0.5c0-0.2-0.2-0.3-0.4-0.3h-0.2V66.7z M145.9,65.6h0.2c0.3,0,0.5-0.1,0.5-0.3
		c0-0.2-0.1-0.3-0.4-0.3c-0.1,0-0.2,0-0.3,0V65.6z"/>
</g>
</svg>
